<svg id="レイヤー_1" data-name="レイヤー 1" xmlns="http://www.w3.org/2000/svg" width="480" height="480" viewBox="0 0 480 480"><defs><style>.cls-1,.cls-2{fill:#f8f8f8;}.cls-1{fill-rule:evenodd;}</style></defs><title>アートボード 1</title><path class="cls-1" d="M84.79,86.44l-5.66-5.66a7.13,7.13,0,0,1-9.94-9.94l-5.61-5.62A15.05,15.05,0,0,0,84.79,86.44Z"/><path class="cls-1" d="M65.23,63.56l5.62,5.62a7.13,7.13,0,0,1,9.94,9.94l5.66,5.66A15.05,15.05,0,0,0,65.23,63.56Z"/><path class="cls-1" d="M78.46,78.45a4.85,4.85,0,1,0-6.87,0A4.85,4.85,0,0,0,78.46,78.45Z"/><path class="cls-1" d="M200.79,70.88a7.13,7.13,0,0,1-9.94,9.94l-5.62,5.62a15.05,15.05,0,0,0,21.22-21.22Z"/><path class="cls-1" d="M189.19,79.16a7.13,7.13,0,0,1,9.94-9.94l5.66-5.66a15.05,15.05,0,0,0-21.21,21.22Z"/><path class="cls-1" d="M191.59,71.54a4.86,4.86,0,1,0,6.87,0A4.86,4.86,0,0,0,191.59,71.54Z"/><path class="cls-1" d="M320.79,70.88a7.13,7.13,0,0,1-9.94,9.94l-5.62,5.62a15.05,15.05,0,0,0,21.22-21.22Z"/><path class="cls-1" d="M309.19,79.16a7.13,7.13,0,0,1,9.94-9.94l5.66-5.66a15.05,15.05,0,0,0-21.21,21.22Z"/><path class="cls-1" d="M311.59,71.54a4.86,4.86,0,1,0,6.87,0A4.86,4.86,0,0,0,311.59,71.54Z"/><path class="cls-1" d="M435,90a15,15,0,0,0,15-13.83h-8a7.13,7.13,0,0,1-14.06,0H420A15,15,0,0,0,435,90Z"/><path class="cls-1" d="M435,67.91a7.12,7.12,0,0,1,7,5.92h8a15,15,0,0,0-30,0H428A7.12,7.12,0,0,1,435,67.91Z"/><path class="cls-1" d="M430.19,75A4.85,4.85,0,1,0,435,70.14,4.85,4.85,0,0,0,430.19,75Z"/><path class="cls-1" d="M80.79,190.88a7.13,7.13,0,0,1-9.94,9.94l-5.62,5.62a15.05,15.05,0,0,0,21.22-21.22Z"/><path class="cls-1" d="M69.19,199.16a7.13,7.13,0,0,1,9.94-9.94l5.66-5.66a15.05,15.05,0,0,0-21.21,21.22Z"/><path class="cls-1" d="M71.59,191.54a4.86,4.86,0,1,0,6.87,0A4.86,4.86,0,0,0,71.59,191.54Z"/><path class="cls-1" d="M183.58,185.22a15.05,15.05,0,0,0,21.21,21.22l-5.66-5.66a7.13,7.13,0,0,1-9.94-9.94Z"/><path class="cls-1" d="M185.23,183.56l5.62,5.62a7.13,7.13,0,0,1,9.94,9.94l5.66,5.66a15.05,15.05,0,0,0-21.22-21.22Z"/><path class="cls-1" d="M198.46,198.45a4.85,4.85,0,1,0-6.87,0A4.85,4.85,0,0,0,198.46,198.45Z"/><path class="cls-1" d="M308,196.17H300a15,15,0,0,0,30,0h-8a7.13,7.13,0,0,1-14.06,0Z"/><path class="cls-1" d="M315,180a15,15,0,0,0-15,13.83H308a7.13,7.13,0,0,1,14.06,0h8A15,15,0,0,0,315,180Z"/><path class="cls-1" d="M319.89,195a4.85,4.85,0,1,0-4.85,4.86A4.85,4.85,0,0,0,319.89,195Z"/><path class="cls-1" d="M444.79,206.44l-5.66-5.66a7.13,7.13,0,0,1-9.94-9.94l-5.61-5.62a15.05,15.05,0,0,0,21.21,21.22Z"/><path class="cls-1" d="M445.62,184.39a15,15,0,0,0-20.39-.83l5.62,5.62a7.13,7.13,0,0,1,9.94,9.94l5.66,5.66A15,15,0,0,0,445.62,184.39Z"/><path class="cls-1" d="M431.6,191.59a4.85,4.85,0,1,0,6.87,0A4.86,4.86,0,0,0,431.6,191.59Z"/><path class="cls-1" d="M63.58,305.22a15.05,15.05,0,0,0,21.21,21.22l-5.66-5.66a7.13,7.13,0,0,1-9.94-9.94Z"/><path class="cls-1" d="M65.23,303.56l5.62,5.62a7.13,7.13,0,0,1,9.94,9.94l5.66,5.66a15.05,15.05,0,0,0-21.22-21.22Z"/><path class="cls-1" d="M78.46,318.45a4.85,4.85,0,1,0-6.87,0A4.85,4.85,0,0,0,78.46,318.45Z"/><path class="cls-1" d="M200.79,310.88a7.13,7.13,0,0,1-9.94,9.94l-5.62,5.62a15.05,15.05,0,0,0,21.22-21.22Z"/><path class="cls-1" d="M189.19,319.16a7.13,7.13,0,0,1,9.94-9.94l5.66-5.66a15.05,15.05,0,0,0-21.21,21.22Z"/><path class="cls-1" d="M191.59,311.54a4.86,4.86,0,1,0,6.87,0A4.86,4.86,0,0,0,191.59,311.54Z"/><path class="cls-1" d="M320.79,310.88a7.13,7.13,0,0,1-9.94,9.94l-5.62,5.62a15.05,15.05,0,0,0,21.22-21.22Z"/><path class="cls-1" d="M309.19,319.16a7.13,7.13,0,0,1,9.94-9.94l5.66-5.66a15.05,15.05,0,0,0-21.21,21.22Z"/><path class="cls-1" d="M311.59,311.54a4.86,4.86,0,1,0,6.87,0A4.86,4.86,0,0,0,311.59,311.54Z"/><path class="cls-1" d="M428,316.17H420a15,15,0,0,0,30,0h-8a7.13,7.13,0,0,1-14.06,0Z"/><path class="cls-1" d="M435,300a15,15,0,0,0-15,13.83H428a7.13,7.13,0,0,1,14.06,0h8A15,15,0,0,0,435,300Z"/><path class="cls-1" d="M439.89,315a4.85,4.85,0,1,0-4.85,4.86A4.85,4.85,0,0,0,439.89,315Z"/><path class="cls-1" d="M15,30A15,15,0,0,0,30,16.17H22a7.13,7.13,0,0,1-14.06,0H0A15,15,0,0,0,15,30Z"/><path class="cls-1" d="M15,7.91a7.12,7.12,0,0,1,7,5.92h8a15,15,0,0,0-30,0H7.94A7.12,7.12,0,0,1,15,7.91Z"/><ellipse class="cls-2" cx="15.03" cy="15" rx="4.85" ry="4.86"/><path class="cls-1" d="M255,30a15,15,0,0,0,15-13.83h-8a7.13,7.13,0,0,1-14.06,0H240A15,15,0,0,0,255,30Z"/><path class="cls-1" d="M255,7.91a7.12,7.12,0,0,1,7,5.92h8a15,15,0,0,0-30,0h7.94A7.12,7.12,0,0,1,255,7.91Z"/><ellipse class="cls-2" cx="255.03" cy="15" rx="4.85" ry="4.86"/><path class="cls-1" d="M384.78,26.44l-5.66-5.66a7.13,7.13,0,0,1-9.94-9.94l-5.62-5.62a15.05,15.05,0,0,0,21.22,21.22Z"/><path class="cls-1" d="M365.22,3.56l5.62,5.62a7.13,7.13,0,0,1,9.94,9.94l5.66,5.66A15.05,15.05,0,0,0,365.22,3.56Z"/><path class="cls-1" d="M378.45,18.45a4.85,4.85,0,1,0-6.87,0A4.86,4.86,0,0,0,378.45,18.45Z"/><path class="cls-1" d="M264.78,146.44l-5.66-5.66a7.13,7.13,0,0,1-9.94-9.94l-5.62-5.62a15.05,15.05,0,0,0,21.22,21.22Z"/><path class="cls-1" d="M245.22,123.56l5.62,5.62a7.13,7.13,0,0,1,9.94,9.94l5.66,5.66a15.05,15.05,0,0,0-21.22-21.22Z"/><path class="cls-1" d="M258.45,138.45a4.85,4.85,0,1,0-6.87,0A4.86,4.86,0,0,0,258.45,138.45Z"/><path class="cls-1" d="M380.78,130.86a7.13,7.13,0,0,1-9.94,9.94l-5.62,5.61a15.05,15.05,0,0,0,21.22-21.21Z"/><path class="cls-1" d="M369.18,139.14a7.13,7.13,0,0,1,9.94-9.94l5.66-5.66a15.05,15.05,0,0,0-21.22,21.21Z"/><path class="cls-1" d="M371.58,131.52a4.86,4.86,0,1,0,6.87,0A4.86,4.86,0,0,0,371.58,131.52Z"/><path class="cls-1" d="M20.78,130.88a7.13,7.13,0,0,1-9.94,9.94l-5.62,5.62a15.05,15.05,0,0,0,21.22-21.22Z"/><path class="cls-1" d="M9.18,139.16a7.13,7.13,0,0,1,9.94-9.94l5.66-5.66A15.05,15.05,0,0,0,3.56,144.78Z"/><path class="cls-1" d="M11.58,131.54a4.86,4.86,0,1,0,6.87,0A4.86,4.86,0,0,0,11.58,131.54Z"/><path class="cls-1" d="M140.78,10.88a7.13,7.13,0,0,1-9.94,9.94l-5.62,5.62A15.05,15.05,0,0,0,146.44,5.22Z"/><path class="cls-1" d="M129.18,19.16a7.13,7.13,0,0,1,9.94-9.94l5.66-5.66a15.05,15.05,0,0,0-21.22,21.22Z"/><path class="cls-1" d="M131.58,11.54a4.86,4.86,0,1,0,6.87,0A4.86,4.86,0,0,0,131.58,11.54Z"/><path class="cls-1" d="M127.94,136.17H120a15,15,0,0,0,30,0h-8a7.13,7.13,0,0,1-14.06,0Z"/><path class="cls-1" d="M135,120a15,15,0,0,0-15,13.83h7.94a7.13,7.13,0,0,1,14.06,0h8A15,15,0,0,0,135,120Z"/><ellipse class="cls-2" cx="135.03" cy="135" rx="4.85" ry="4.86"/><path class="cls-1" d="M247.94,256.17H240a15,15,0,0,0,30,0h-8a7.13,7.13,0,0,1-14.06,0Z"/><path class="cls-1" d="M255,240a15,15,0,0,0-15,13.83h7.94a7.13,7.13,0,0,1,14.06,0h8A15,15,0,0,0,255,240Z"/><path class="cls-1" d="M259.88,255a4.85,4.85,0,1,0-4.85,4.86A4.85,4.85,0,0,0,259.88,255Z"/><path class="cls-1" d="M363.56,245.2a15.05,15.05,0,0,0,21.22,21.21l-5.66-5.66a7.13,7.13,0,0,1-9.94-9.93Z"/><path class="cls-1" d="M365.22,243.54l5.62,5.62a7.13,7.13,0,0,1,9.94,9.94l5.66,5.65a15.05,15.05,0,0,0-21.22-21.21Z"/><path class="cls-1" d="M378.45,258.43a4.85,4.85,0,1,0-6.87,0A4.86,4.86,0,0,0,378.45,258.43Z"/><path class="cls-1" d="M7.94,256.17H0a15,15,0,0,0,30,0H22a7.13,7.13,0,0,1-14.06,0Z"/><path class="cls-1" d="M15,240A15,15,0,0,0,0,253.83H7.94a7.13,7.13,0,0,1,14.06,0h8A15,15,0,0,0,15,240Z"/><ellipse class="cls-2" cx="15.03" cy="255" rx="4.85" ry="4.86"/><path class="cls-1" d="M140.78,250.88a7.13,7.13,0,0,1-9.94,9.94l-5.62,5.62a15.05,15.05,0,0,0,21.22-21.22Z"/><path class="cls-1" d="M129.18,259.16a7.13,7.13,0,0,1,9.94-9.94l5.66-5.66a15.05,15.05,0,0,0-21.22,21.22Z"/><path class="cls-1" d="M131.58,251.54a4.86,4.86,0,1,0,6.87,0A4.86,4.86,0,0,0,131.58,251.54Z"/><path class="cls-1" d="M80.79,431.88a7.13,7.13,0,0,1-9.94,9.94l-5.62,5.62a15.05,15.05,0,0,0,21.22-21.22Z"/><path class="cls-1" d="M70,431a7.11,7.11,0,0,1,9.15-.79l5.66-5.66a15.05,15.05,0,0,0-21.21,21.22l5.61-5.62A7.11,7.11,0,0,1,70,431Z"/><path class="cls-1" d="M71.59,432.54a4.86,4.86,0,1,0,6.87,0A4.86,4.86,0,0,0,71.59,432.54Z"/><path class="cls-1" d="M190,441a7.11,7.11,0,0,1-.79-9.15l-5.61-5.62a15.05,15.05,0,0,0,21.21,21.22l-5.66-5.66A7.11,7.11,0,0,1,190,441Z"/><path class="cls-1" d="M185.23,424.56l5.62,5.62a7.13,7.13,0,0,1,9.94,9.94l5.66,5.66a15.05,15.05,0,0,0-21.22-21.22Z"/><path class="cls-1" d="M198.46,439.45a4.85,4.85,0,1,0-6.87,0A4.85,4.85,0,0,0,198.46,439.45Z"/><path class="cls-1" d="M315,443.09a7.12,7.12,0,0,1-7-5.92H300a15,15,0,0,0,30,0h-8A7.12,7.12,0,0,1,315,443.09Z"/><path class="cls-1" d="M315,421a15,15,0,0,0-15,13.83H308a7.13,7.13,0,0,1,14.06,0h8A15,15,0,0,0,315,421Z"/><path class="cls-1" d="M319.89,436a4.85,4.85,0,1,0-4.85,4.86A4.85,4.85,0,0,0,319.89,436Z"/><path class="cls-1" d="M430,441a7.11,7.11,0,0,1-.79-9.15l-5.61-5.62a15.05,15.05,0,0,0,21.21,21.22l-5.66-5.66A7.11,7.11,0,0,1,430,441Z"/><path class="cls-1" d="M425.23,424.56l5.62,5.62a7.13,7.13,0,0,1,9.94,9.94l5.66,5.66a15.05,15.05,0,0,0-21.22-21.22Z"/><path class="cls-1" d="M438.46,439.45a4.85,4.85,0,1,0-6.87,0A4.85,4.85,0,0,0,438.46,439.45Z"/><path class="cls-1" d="M250,381a7.11,7.11,0,0,1-.79-9.15l-5.62-5.62a15.05,15.05,0,0,0,21.22,21.22l-5.66-5.66A7.11,7.11,0,0,1,250,381Z"/><path class="cls-1" d="M245.22,364.56l5.62,5.62a7.13,7.13,0,0,1,9.94,9.94l5.66,5.66a15.05,15.05,0,0,0-21.22-21.22Z"/><path class="cls-1" d="M258.45,379.45a4.85,4.85,0,1,0-6.87,0A4.86,4.86,0,0,0,258.45,379.45Z"/><path class="cls-1" d="M380.78,371.86a7.13,7.13,0,0,1-9.94,9.94l-5.62,5.61a15.05,15.05,0,0,0,21.22-21.21Z"/><path class="cls-1" d="M370,371a7.12,7.12,0,0,1,9.15-.78l5.66-5.66a15.05,15.05,0,0,0-21.22,21.21l5.62-5.61A7.12,7.12,0,0,1,370,371Z"/><path class="cls-1" d="M371.58,372.52a4.86,4.86,0,1,0,6.87,0A4.86,4.86,0,0,0,371.58,372.52Z"/><path class="cls-1" d="M20.78,371.88a7.13,7.13,0,0,1-9.94,9.94l-5.62,5.62a15.05,15.05,0,0,0,21.22-21.22Z"/><path class="cls-1" d="M10,371a7.11,7.11,0,0,1,9.15-.79l5.66-5.66A15.05,15.05,0,0,0,3.56,385.78l5.62-5.62A7.11,7.11,0,0,1,10,371Z"/><path class="cls-1" d="M11.58,372.54a4.86,4.86,0,1,0,6.87,0A4.86,4.86,0,0,0,11.58,372.54Z"/><path class="cls-1" d="M135,383.09a7.12,7.12,0,0,1-7-5.92H120a15,15,0,0,0,30,0h-8A7.12,7.12,0,0,1,135,383.09Z"/><path class="cls-1" d="M135,361a15,15,0,0,0-15,13.83h7.94a7.13,7.13,0,0,1,14.06,0h8A15,15,0,0,0,135,361Z"/><ellipse class="cls-2" cx="135.03" cy="376" rx="4.85" ry="4.86"/></svg>